<?xml version="1.0" encoding="UTF-8"?>
<svg xmlns="http://www.w3.org/2000/svg" xmlns:xlink="http://www.w3.org/1999/xlink" viewBox="0 0 16 16" width="16px" height="16px">
<g id="surface121274518">
<rect x="0" y="0" width="16" height="16" style="fill:rgb(0%,0%,0%);fill-opacity:1;stroke:none;"/>
<path style=" stroke:none;fill-rule:nonzero;fill:rgb(100%,100%,100%);fill-opacity:1;" d="M 5.523438 1.6875 C 3.445312 1.6875 1.75 3.382812 1.75 5.460938 L 1.75 10.917969 C 1.75 12.992188 3.445312 14.6875 5.523438 14.6875 L 10.980469 14.6875 C 13.054688 14.6875 14.75 12.992188 14.75 10.914062 L 14.75 5.460938 C 14.75 3.382812 13.054688 1.6875 10.976562 1.6875 Z M 5.523438 2.6875 L 10.976562 2.6875 C 12.515625 2.6875 13.75 3.921875 13.75 5.460938 L 13.75 10.914062 C 13.75 12.453125 12.515625 13.6875 10.980469 13.6875 L 5.523438 13.6875 C 3.984375 13.6875 2.75 12.453125 2.75 10.917969 L 2.75 5.460938 C 2.75 3.921875 3.984375 2.6875 5.523438 2.6875 Z M 12.25 3.6875 C 11.972656 3.6875 11.75 3.910156 11.75 4.1875 C 11.75 4.464844 11.972656 4.6875 12.25 4.6875 C 12.527344 4.6875 12.75 4.464844 12.75 4.1875 C 12.75 3.910156 12.527344 3.6875 12.25 3.6875 Z M 8.25 4.6875 C 6.324219 4.6875 4.75 6.261719 4.75 8.1875 C 4.75 10.113281 6.324219 11.6875 8.25 11.6875 C 10.175781 11.6875 11.75 10.113281 11.75 8.1875 C 11.75 6.261719 10.175781 4.6875 8.25 4.6875 Z M 8.25 5.6875 C 9.636719 5.6875 10.75 6.800781 10.75 8.1875 C 10.75 9.574219 9.636719 10.6875 8.25 10.6875 C 6.863281 10.6875 5.75 9.574219 5.75 8.1875 C 5.75 6.800781 6.863281 5.6875 8.25 5.6875 Z M 8.25 5.6875 "/>
</g>
</svg>
