<?xml version="1.0" encoding="UTF-8"?>
<svg xmlns="http://www.w3.org/2000/svg" xmlns:xlink="http://www.w3.org/1999/xlink" viewBox="0 0 24 24" width="24px" height="24px">
<g id="surface121263769">
<rect x="0" y="0" width="24" height="24" style="fill:rgb(0%,0%,0%);fill-opacity:1;stroke:none;"/>
<path style=" stroke:none;fill-rule:nonzero;fill:rgb(100%,100%,100%);fill-opacity:1;" d="M 12 1.167969 C 6.03125 1.167969 1.167969 6.03125 1.167969 12 C 1.167969 17.96875 6.03125 22.832031 12 22.832031 C 17.96875 22.832031 22.832031 17.96875 22.832031 12 C 22.832031 6.03125 17.96875 1.167969 12 1.167969 Z M 12 3.332031 C 16.800781 3.332031 20.667969 7.199219 20.667969 12 C 20.667969 16.347656 17.488281 19.921875 13.320312 20.554688 L 13.320312 14.582031 L 15.84375 14.582031 L 16.238281 12.019531 L 13.320312 12.019531 L 13.320312 10.621094 C 13.320312 9.554688 13.667969 8.609375 14.664062 8.609375 L 16.261719 8.609375 L 16.261719 6.375 C 15.980469 6.335938 15.386719 6.253906 14.265625 6.253906 C 11.917969 6.253906 10.542969 7.492188 10.542969 10.316406 L 10.542969 12.019531 L 8.128906 12.019531 L 8.128906 14.582031 L 10.542969 14.582031 L 10.542969 20.535156 C 6.441406 19.84375 3.332031 16.300781 3.332031 12 C 3.332031 7.199219 7.199219 3.332031 12 3.332031 Z M 12 3.332031 "/>
<path style=" stroke:none;fill-rule:nonzero;fill:rgb(0%,0%,0%);fill-opacity:1;" d="M 0.0664062 -0.492188 L 0.0664062 -0.414062 L -0.167969 -0.414062 L -0.167969 0.230469 L -0.261719 0.230469 L -0.261719 -0.414062 L -0.492188 -0.414062 L -0.492188 -0.492188 Z M 0.332031 0.238281 C 0.261719 0.238281 0.199219 0.214844 0.15625 0.167969 C 0.109375 0.121094 0.0859375 0.0546875 0.0859375 -0.0234375 L 0.0859375 -0.0390625 C 0.0859375 -0.09375 0.0976562 -0.140625 0.117188 -0.183594 C 0.136719 -0.222656 0.164062 -0.257812 0.203125 -0.28125 C 0.238281 -0.304688 0.277344 -0.316406 0.320312 -0.316406 C 0.390625 -0.316406 0.445312 -0.292969 0.484375 -0.246094 C 0.523438 -0.203125 0.542969 -0.136719 0.542969 -0.0507812 L 0.542969 -0.0117188 L 0.179688 -0.0117188 C 0.179688 0.0390625 0.195312 0.0820312 0.226562 0.117188 C 0.253906 0.148438 0.292969 0.164062 0.335938 0.164062 C 0.371094 0.164062 0.398438 0.160156 0.417969 0.144531 C 0.441406 0.132812 0.460938 0.113281 0.480469 0.09375 L 0.535156 0.136719 C 0.488281 0.207031 0.421875 0.238281 0.332031 0.238281 Z M 0.320312 -0.242188 C 0.285156 -0.242188 0.253906 -0.226562 0.226562 -0.199219 C 0.203125 -0.171875 0.1875 -0.136719 0.179688 -0.0859375 L 0.449219 -0.0859375 L 0.449219 -0.09375 C 0.449219 -0.140625 0.433594 -0.175781 0.414062 -0.203125 C 0.390625 -0.226562 0.359375 -0.242188 0.320312 -0.242188 Z M 0.710938 -0.304688 L 0.828125 -0.109375 L 0.945312 -0.304688 L 1.054688 -0.304688 L 0.878906 -0.0429688 L 1.058594 0.230469 L 0.953125 0.230469 L 0.828125 0.0273438 L 0.707031 0.230469 L 0.597656 0.230469 L 0.78125 -0.0429688 L 0.605469 -0.304688 Z M 1.183594 -0.4375 L 1.277344 -0.4375 L 1.277344 -0.304688 L 1.375 -0.304688 L 1.375 -0.234375 L 1.277344 -0.234375 L 1.277344 0.0976562 C 1.277344 0.117188 1.28125 0.136719 1.289062 0.144531 C 1.296875 0.15625 1.3125 0.160156 1.335938 0.160156 C 1.34375 0.160156 1.359375 0.160156 1.378906 0.15625 L 1.378906 0.230469 C 1.355469 0.238281 1.332031 0.238281 1.308594 0.238281 C 1.265625 0.238281 1.234375 0.226562 1.214844 0.203125 C 1.195312 0.179688 1.183594 0.144531 1.183594 0.0976562 L 1.183594 -0.234375 L 1.085938 -0.234375 L 1.085938 -0.304688 L 1.183594 -0.304688 Z M 1.183594 -0.4375 "/>
</g>
</svg>
